<?xml version="1.0" encoding="utf-8"?>
<!-- Generator: Adobe Illustrator 17.1.0, SVG Export Plug-In . SVG Version: 6.00 Build 0)  -->
<!DOCTYPE svg PUBLIC "-//W3C//DTD SVG 1.1//EN" "http://www.w3.org/Graphics/SVG/1.1/DTD/svg11.dtd">
<svg version="1.1" id="Layer_1" xmlns="http://www.w3.org/2000/svg" xmlns:xlink="http://www.w3.org/1999/xlink" x="0px" y="0px"
	 viewBox="0 0 100 100" enable-background="new 0 0 100 100" xml:space="preserve">
<g>
	<path fill="#C45828" d="M8.289,80.143c-0.371-0.001-0.71-0.206-0.883-0.534s-0.15-0.725,0.06-1.03l41.021-59.953
		c0.185-0.271,0.49-0.433,0.818-0.436c0.002,0,0.005,0,0.007,0c0.325,0,0.629,0.158,0.817,0.423l42.399,60.069
		c0.215,0.305,0.242,0.705,0.07,1.037c-0.172,0.331-0.515,0.539-0.888,0.539L8.289,80.143z"/>
	<path fill="#C45829" d="M49.311,19.19L91.71,79.258L8.29,79.142L49.311,19.19 M49.311,17.19c-0.005,0-0.01,0-0.015,0
		c-0.655,0.005-1.266,0.33-1.636,0.871L6.639,78.013c-0.419,0.612-0.464,1.405-0.119,2.061c0.345,0.656,1.025,1.067,1.767,1.068
		l83.42,0.116c0.001,0,0.002,0,0.003,0c0.747,0,1.431-0.416,1.775-1.079c0.344-0.664,0.29-1.464-0.141-2.075L50.945,18.037
		C50.57,17.506,49.96,17.19,49.311,17.19L49.311,17.19z"/>
</g>
<g>
	<polygon fill="#0E0E0E" points="20.414,73.406 49.46,30.954 79.483,73.488 	"/>
	<path fill="#C45829" d="M49.469,32.141L78.175,72.81l-56.479-0.079L49.469,32.141 M49.452,29.768l-1.1,1.608l-27.773,40.59
		l-1.448,2.116l2.564,0.004l56.479,0.079l2.618,0.004l-1.51-2.139L50.576,31.36L49.452,29.768L49.452,29.768z"/>
</g>
<g>
	<polygon fill="#C45828" points="35.035,65.812 49.675,44.414 64.808,65.853 	"/>
	<path fill="#C45829" d="M49.68,45.012l14.469,20.499l-28.468-0.04L49.68,45.012 M49.671,43.816l-0.555,0.811L35.118,65.086
		l-0.73,1.066l1.292,0.002l28.468,0.04l1.32,0.002l-0.761-1.078L50.237,44.619L49.671,43.816L49.671,43.816z"/>
</g>
</svg>
